{"accessors":[{"bufferView":0,"byteOffset":0,"componentType":5126,"count":1981,"max":[1.049996212076648,45.0,1.05],"min":[-1.049999864524786,0.0,-1.049999003660904],"type":"VEC3"},{"bufferView":1,"byteOffset":0,"componentType":5126,"count":1981,"type":"VEC3"},{"bufferView":2,"byteOffset":0,"componentType":5121,"count":1981,"normalized":true,"type":"VEC4"},{"bufferView":3,"byteOffset":0,"componentType":5125,"count":11850,"type":"SCALAR"}],"asset":{"generator":"VTK","version":"2.0"},"bufferViews":[{"buffer":0,"byteLength":23772,"byteOffset":0,"target":34962},{"buffer":1,"byteLength":23772,"byteOffset":0,"target":34962},{"buffer":2,"byteLength":7924,"byteOffset":0,"target":34962},{"buffer":3,"byteLength":47400,"byteOffset":0,"target":34963}],"buffers":[{"byteLength":23772,"uri":"data:application/octet-stream;base64,"},{"byteLength":23772,"uri":"data:application/octet-stream;base64,"},{"byteLength":7924,"uri":"data:application/octet-stream;base64,"},{"byteLength":47400,"uri":"data:application/octet-stream;base64,"}],"cameras":[{"perspective":{"aspectRatio":1.3333333333333333,"yfov":0.5235987755982988,"zfar":1000.01,"znear":0.01},"type":"perspective"}],"materials":[{"pbrMetallicRoughness":{"baseColorFactor":[0.6784313725490196,0.8470588235294118,0.9019607843137255,1.0],"metallicFactor":0.0,"roughnessFactor":1.0}}],"meshes":[{"name":"mesh0","primitives":[{"attributes":{"COLOR_0":2,"NORMAL":1,"POSITION":0},"indices":3,"material":0,"mode":4}]}],"nodes":[{"matrix":[2.2204460492503136e-16,-2.2204460492503126e-16,1.0,0.0,1.0,2.220446049250313e-16,-2.220446049250313e-16,0.0,-2.2204460492503126e-16,1.0,2.220446049250313e-16,0.0,0.0,0.0,0.0,1.0],"mesh":0,"name":"mesh0"},{"camera":0,"matrix":[1.0,-0.0,0.0,-0.0,-0.0,1.0,-0.0,0.0,0.0,-0.0,1.0,-0.0,-0.0,0.0,1.0,1.0],"name":"Camera Node"},{"children":[0,1],"name":"Renderer Node"}],"scene":0,"scenes":[{"name":"Layer 0","nodes":[2]}]}